<svg xmlns="http://www.w3.org/2000/svg" width="60" height="60" viewBox="0 0 60 60">
    <path fill="#FFF" fill-rule="nonzero" d="M30.1 57.01c-14.972 0-27.11-12.138-27.11-27.11S15.129 2.79 30.1 2.79 57.21 14.929 57.21 29.9 45.071 57.01 30.1 57.01zm0 2.79C46.613 59.8 60 46.413 60 29.9 60 13.387 46.613 0 30.1 0 13.587 0 .2 13.387.2 29.9c0 16.513 13.387 29.9 29.9 29.9zm-3.647-35.515a.91.91 0 0 1-.91-.908c-.01-5.985.338-9.968 1.04-11.947.855-2.406 1.703-4.118 3.694-5.13l4.33-.3a.7.7 0 0 1 .52 1.215c-2.538 2.315-4.155 4.138-4.85 5.467-1.007 1.927-1.933 5.498-2.777 10.712a1.06 1.06 0 0 1-1.047.89zm-2.774 3.383a.91.91 0 0 1-1.27-.2c-3.526-4.837-5.586-8.262-6.18-10.277-.723-2.448-1.044-4.332-.028-6.32l3.326-2.79a.7.7 0 0 1 1.136.678c-.693 3.365-.93 5.79-.71 7.274.317 2.151 1.667 5.584 4.049 10.299a1.06 1.06 0 0 1-.323 1.336zm-.208 4.216a.91.91 0 0 1-1.144.584c-5.695-1.84-9.376-3.4-11.04-4.68-2.024-1.557-3.39-2.892-3.738-5.098l1.052-4.211a.7.7 0 0 1 1.316-.12c1.418 3.13 2.652 5.23 3.701 6.303 1.522 1.553 4.632 3.537 9.33 5.951.462.238.684.776.523 1.271zm2.44 3.44a.91.91 0 0 1-.583 1.145c-5.689 1.859-9.583 2.76-11.683 2.703-2.552-.07-4.442-.347-6.02-1.928L6.001 33.22a.7.7 0 0 1 .995-.87c2.986 1.698 5.22 2.673 6.698 2.923 2.144.363 5.826.14 11.046-.669a1.06 1.06 0 0 1 1.17.72zm4.154 1.348a.91.91 0 0 1 .202 1.27c-3.51 4.847-6.131 7.865-7.864 9.053-2.105 1.444-3.797 2.331-6.003 1.98l-3.68-2.302a.7.7 0 0 1 .294-1.29c3.414-.38 5.794-.905 7.137-1.572 1.948-.967 4.796-3.311 8.544-7.033a1.06 1.06 0 0 1 1.37-.106zm4.282-1.257a.91.91 0 0 1 .91.908c.01 5.985-.338 9.968-1.04 11.947-.855 2.406-1.703 4.118-3.694 5.13l-4.33.3a.7.7 0 0 1-.52-1.215c2.538-2.315 4.155-4.138 4.85-5.467 1.007-1.927 1.933-5.498 2.777-10.712a1.06 1.06 0 0 1 1.047-.89zm2.774-3.383a.91.91 0 0 1 1.27.2c3.526 4.837 5.586 8.262 6.18 10.277.723 2.448 1.044 4.332.028 6.32l-3.326 2.79a.7.7 0 0 1-1.136-.678c.693-3.365.93-5.79.71-7.274-.317-2.151-1.667-5.584-4.049-10.299a1.06 1.06 0 0 1 .323-1.336zm.208-4.216a.91.91 0 0 1 1.144-.584c5.695 1.84 9.376 3.4 11.04 4.68 2.024 1.557 3.39 2.892 3.738 5.098l-1.052 4.211a.7.7 0 0 1-1.316.12c-1.418-3.13-2.652-5.23-3.701-6.303-1.522-1.553-4.632-3.537-9.33-5.951a1.06 1.06 0 0 1-.523-1.271zm-2.44-3.44a.91.91 0 0 1 .583-1.145c5.689-1.859 9.583-2.76 11.683-2.703 2.552.07 4.442.347 6.02 1.928l1.624 4.025a.7.7 0 0 1-.995.87c-2.986-1.698-5.22-2.673-6.698-2.923-2.144-.363-5.826-.14-11.046.669a1.06 1.06 0 0 1-1.17-.72zm-4.154-1.348a.91.91 0 0 1-.202-1.27c3.51-4.847 6.131-7.865 7.864-9.053 2.105-1.444 3.797-2.331 6.003-1.98l3.68 2.302a.7.7 0 0 1-.294 1.29c-3.414.38-5.794.905-7.137 1.572-1.948.967-4.796 3.311-8.544 7.033a1.06 1.06 0 0 1-1.37.106zM30 32.7a3 3 0 1 1 0-6 3 3 0 0 1 0 6z"/>
</svg>
