<svg id="standart" xmlns="http://www.w3.org/2000/svg" xmlns:xlink="http://www.w3.org/1999/xlink" width="30.005" height="28.583" viewBox="0 0 30.005 28.583">
  <defs>
    <linearGradient id="linear-gradient" x1="0.5" x2="0.5" y2="1.161" gradientUnits="objectBoundingBox">
      <stop offset="0" stop-color="#fff" stop-opacity="0"/>
      <stop offset="1" stop-opacity="0.196"/>
    </linearGradient>
  </defs>
  <path id="Path_6975" data-name="Path 6975" d="M10.84,6.566c-1.494,0-2.713,1.51-2.713,3.357V26.972c0,1.848,1.219,3.357,2.713,3.357H32.32c1.488,0,2.719-1.51,2.719-3.357V9.923c0-1.848-1.231-3.357-2.719-3.357Z" transform="translate(-6.13 -6.566)" fill="#232b38" fill-rule="evenodd"/>
  <path id="Path_6976" data-name="Path 6976" d="M10.747,38.593c-1.475,0-2.677,1.512-2.677,3.375v1.384c0,1.857,1.2,3.369,2.677,3.369H32.062c1.482,0,2.689-1.512,2.689-3.369V41.968c0-1.863-1.207-3.375-2.689-3.375Z" transform="translate(-6.109 -18.138)" fill="none" fill-rule="evenodd"/>
  <g id="Group_13830" data-name="Group 13830" transform="translate(1.961 20.455)">
    <path id="Path_6977" data-name="Path 6977" d="M5.747,32.593c-1.475,0-2.677,1.512-2.677,3.375v1.384c0,1.857,1.2,3.369,2.677,3.369H27.061c1.482,0,2.689-1.512,2.689-3.369V35.968c0-1.863-1.207-3.375-2.689-3.375Z" transform="translate(-3.07 -32.593)" fill="#7c8799"/>
    <path id="Path_6978" data-name="Path 6978" d="M5.747,32.593c-1.475,0-2.677,1.512-2.677,3.375v1.384c0,1.857,1.2,3.369,2.677,3.369H27.061c1.482,0,2.689-1.512,2.689-3.369V35.968c0-1.863-1.207-3.375-2.689-3.375Z" transform="translate(-3.07 -32.593)" fill="url(#linear-gradient)" style="mix-blend-mode: multiply;isolation: isolate"/>
  </g>
  <path id="Path_6979" data-name="Path 6979" d="M33.025,11.2a1.6,1.6,0,0,0-1.42,1.714v13.6a1.592,1.592,0,0,0,1.42,1.7h.565A1.6,1.6,0,0,0,35,26.51v-13.6A1.605,1.605,0,0,0,33.59,11.2h-.565Zm-26.65,0A1.591,1.591,0,0,0,5,12.912v13.6a1.588,1.588,0,0,0,1.375,1.7h.574a1.584,1.584,0,0,0,1.357-1.7v-13.6A1.588,1.588,0,0,0,6.949,11.2H6.375Z" transform="translate(-5 -8.24)" fill="#c3cbd7" fill-rule="evenodd"/>
</svg>
