<svg viewBox="0 0 36 32" xmlns="http://www.w3.org/2000/svg"><path d="M11.69 7.767A1.248 1.248 0 0010.565 7H5.43c-.47.01-.913.287-1.12.767L.114 17.465c-.289.667-.01 1.455.621 1.76.17.08.348.12.523.12.477 0 .935-.289 1.145-.777L4 15l-1.428 6.197a.67.67 0 00.123.54.6.6 0 00.474.238L4 22v8.407C4 31.287 4.666 32 5.5 32S7 31.287 7 30.407v-8.432L9 22v8.407c0 .88.666 1.593 1.5 1.593s1.5-.713 1.5-1.593V22l.828-.025a.597.597 0 00.474-.239.67.67 0 00.123-.539L12 15l1.597 3.568c.21.488.668.777 1.146.777.174 0 .352-.04.521-.12.632-.305.911-1.093.622-1.76l-4.197-9.698z" fill="#C3C7CC"/><circle cx="8" cy="3" r="3" fill="#C3C7CC"/><path d="M35.886 17.46l-4.198-9.703c-.226-.528-.74-.756-1.26-.756L25.572 7c-.52 0-1.034.228-1.261.757l-4.197 9.702c-.29.668-.01 1.456.622 1.76.17.081.347.12.521.12.478 0 .936-.288 1.146-.777L24 14.5v15.906c0 .88.668 1.594 1.5 1.594s1.5-.713 1.5-1.594V21h2v9.406c0 .88.666 1.594 1.5 1.594s1.5-.713 1.5-1.594V19c0 .5 0-.007 0 0v-4.5l1.597 4.062c.21.489.667.778 1.145.778.174 0 .353-.04.523-.12.631-.305.91-1.093.62-1.76z" fill="#C3C7CC"/><circle cx="28" cy="3" r="3" fill="#C3C7CC"/><rect x="17" y="2" width="2" height="28" rx="1" fill="#C3C7CC"/></svg>